<?xml version="1.0" encoding="UTF-8" standalone="no"?>
<!-- Created with Inkscape (http://www.inkscape.org/) -->
<svg
   xmlns:svg="http://www.w3.org/2000/svg"
   xmlns="http://www.w3.org/2000/svg"
   version="1.0"
   width="1000"
   height="1000"
   id="svg2">
  <defs
     id="defs4" />
  <g
     id="layer2" />
  <g
     id="layer1">
    <rect
       width="1000"
       height="1000"
       x="0"
       y="0"
       id="bckgrnd"
       style="fill:#ffffff;fill-opacity:1;fill-rule:nonzero;stroke:none;stroke-width:0.40000001;stroke-linecap:round;stroke-linejoin:miter;marker:none;marker-start:none;marker-mid:none;marker-end:none;stroke-miterlimit:4;stroke-dasharray:none;stroke-dashoffset:0;stroke-opacity:1;visibility:visible;display:inline;overflow:visible;enable-background:accumulate" />
    <path
     transform="translate(-942.28571,-940.6479)"
       d="M 1028,1890 L 990.26203,1890 L 990.26203,1767.124 L 1028,1767.124 L 1028,1727 L 1084,1727 L 1141,1727 L 1141,1685 L 1179,1685 L 1179,1727 L 1216,1727 L 1253,1727 L 1253,1767.124 L 1291,1767.124 L 1291,1727 L 1366,1727 L 1366,1767.124 L 1404,1767.124 L 1404,1727 L 1442,1727 L 1479,1727 L 1479,1808 L 1479,1890 L 1517,1890 L 1517,1930 L 1028,1930 L 1028,1890.6247 z M 1141,1849 L 1179,1849 L 1179,1808 L 1141,1808 L 1141,1767.124 L 1066,1767.124 L 1066,1890 L 1141,1890 L 1141,1849.4582 z M 1291,1808 L 1253,1808 L 1253,1890 L 1291,1890 L 1291,1808.2905 z M 1404,1808 L 1366,1808 L 1366,1890 L 1404,1890 L 1404,1808.2905 z M 1555,1767.124 L 1593,1767.124 L 1593,1727 L 1631,1727 L 1668,1727 L 1668,1645 L 1668,1563 L 1630.585,1563 L 1630.585,1522 L 1743.459,1522 L 1743.459,1706 L 1743.459,1890 L 1819,1890 L 1819,1767.124 L 1781,1767.124 L 1781,1727 L 1856,1727 L 1932,1727 L 1932,1767.124 L 1894,1767.124 L 1894,1890 L 1932,1890 L 1932,1930 L 1555,1930 L 1555,1767.124 z M 1668,1767.124 L 1630.585,1767.124 L 1630.585,1890 L 1668,1890 L 1668,1767.124 z M 952.28571,1604.7435 C 990.26204,1604.7435 1028,1604.7435 1066,1604 L 1066,991.81442 L 952.28571,991.81442 L 952.28571,950.64789 L 1178,950.64789 L 1404,950.64789 L 1404,991.81442 L 1479,991.81442 L 1479,1032.982 L 1517,1032.982 L 1517,1195 L 1479,1195 L 1479,1236 L 1442,1236 L 1442,1277 L 1366,1277 L 1366,1318 L 1291,1318 L 1291,1358 L 1329,1358 L 1329,1400.053 L 1366,1400.053 L 1366,1440 L 1366,1481 L 1404,1481 L 1404,1522 L 1442,1522 L 1442,1563 L 1479,1563 L 1479,1604 L 1555,1604 L 1555,1644 L 1480.262,1644 L 1404,1644.7667 C 1404,1631.4256 1404,1618.0846 1404,1604 L 1366,1604 L 1366,1563 L 1329,1563 L 1329,1522 L 1291,1522 L 1291,1481 L 1253,1481 L 1253,1400.053 L 1216,1400.053 L 1216,1358 L 1179,1358 L 1179,1481 L 1179,1604.7435 C 1216,1604.7435 1254,1604.7435 1291,1604.7435 C 1291,1618.0846 1291,1631.4256 1291,1644.7667 C 1178.737,1644.7667 1065,1644.7667 952.28571,1644.7667 C 952.28571,1631.4256 952.28571,1618.0846 952.28571,1604.7435 z M 1366,1236 L 1404,1236 L 1404,1154 L 1404,1073 L 1366,1073 L 1366,1032.982 L 1329,1032.982 L 1329,991.81442 L 1179,991.81442 L 1179,1134.755 L 1179,1277 L 1272,1277 L 1366,1277 L 1366,1236.5291 z"
       id="path2547"
       style="fill:#ff0000;fill-opacity:1;stroke:none;stroke-opacity:1" />
  </g>
</svg>
